<svg viewBox="0 0 640 512" xmlns="http://www.w3.org/2000/svg"><path d="m630.8 469.1-103.5-81.11c31.35-31.94 57.79-70.78 77.21-114.1 1.906-4.43 3.469-12.07 3.469-17.03 0-4.977-1.562-12.6-3.469-17.03-54.25-123.4-161.6-206.1-284.5-206.1-62.67 0-121.2 21.95-170.8 59.62L38.81 5.116C34.41 1.679 29.19 0 24.03 0 16.91 0 9.839 3.158 5.121 9.189c-8.188 10.44-6.37 25.53 4.068 33.7l591.1 463.1c10.5 8.203 25.57 6.333 33.69-4.073C643.1 492.4 641.2 477.3 630.8 469.1zM394.4 283.8l-81.65-63.1c3.35-9.4 6.35-18.5 6.35-28.7 0-5.48-.874-10.73-2.183-15.78 1.683-.02 2.383-.22 3.083-.22 44.11 0 80 35.89 80 80.05 0 9.85-2.3 19.05-5.6 27.75zm38.8 30.4c9.2-17.4 14.8-37 14.8-58.1 0-70.7-57.3-128.1-128-128.1-32.2 0-61.3 12.2-83.7 31.9l-48-37.6C228 95.03 273.1 80 320 80c99.48 0 191.2 67.5 239.6 175.1-18.06 40.38-42.41 74.43-70.61 101.9l-55.79-42.8zM320 384c13.42 0 26.16-2.643 38.31-6.477L302.8 334c-23.7-5.2-43.3-21.1-54-42.3l-56-43.9c-.2 2.8-.8 5.4-.8 8.2 0 70.7 57.3 128 128 128zm0 48c-99.48 0-191.2-67.5-239.6-175.1 10.83-24.22 24.09-46.03 38.81-65.86L81.28 160.4c-17.77 23.74-33.27 50.04-45.81 78.59C33.56 243.4 31.1 251 31.1 256c0 4.977 1.562 12.6 3.469 17.03 54.25 123.4 161.6 206.1 284.5 206.1 45.46 0 88.77-11.49 128.1-32.14l-42.87-33.59C378 425.4 349.5 432 320 432z" fill="#bebcbc" class="fill-000000"></path></svg>